# xmcd CD database file
#
# Track frame offsets:
#	150
#	30413
#	46386
#	67800
#	88132
#	112507
#	135480
#	157297
#
# Disc length: 2501 seconds
#
# Revision: 1
# Processed by: cddbd v1.5.2PL0 Copyright (c) Steve Scherf et al.
# Submitted via: CDex 1.70beta2
#
DISCID=5c09c308
DTITLE=Jan Hammer Group - Oh Yeah?
DYEAR=1976
DGENRE=Jazz
TTITLE0=Magical Dog
TTITLE1=One To One
TTITLE2=Evolove
TTITLE3=Oh, Yeah?
TTITLE4=Bambu Forest
TTITLE5=Tewnty One
TTITLE6=Let The Chidren Grow
TTITLE7=Red And Orange
EXTD=YEAR: 1976
EXTT0=
EXTT1=
EXTT2=
EXTT3=
EXTT4=
EXTT5=
EXTT6=
EXTT7=
PLAYORDER=
